<?xml version="1.0" encoding="UTF-8" standalone="no"?>
<svg
   xmlns:dc="http://purl.org/dc/elements/1.1/"
   xmlns:cc="http://creativecommons.org/ns#"
   xmlns:rdf="http://www.w3.org/1999/02/22-rdf-syntax-ns#"
   xmlns:svg="http://www.w3.org/2000/svg"
   xmlns="http://www.w3.org/2000/svg"
   xmlns:sodipodi="http://sodipodi.sourceforge.net/DTD/sodipodi-0.dtd"
   xmlns:inkscape="http://www.inkscape.org/namespaces/inkscape"
   version="1.1"
   id="Layer_1"
   x="0px"
   y="0px"
   viewBox="0 0 512 512"
   style="enable-background:new 0 0 512 512;"
   xml:space="preserve"
   sodipodi:docname="FatihKalem.svg"
   inkscape:version="1.0.2 (e86c870879, 2021-01-15)"><metadata
   id="metadata55"><rdf:RDF><cc:Work
       rdf:about=""><dc:format>image/svg+xml</dc:format><dc:type
         rdf:resource="http://purl.org/dc/dcmitype/StillImage" /></cc:Work></rdf:RDF></metadata><defs
   id="defs53" /><sodipodi:namedview
   pagecolor="#ffffff"
   bordercolor="#666666"
   borderopacity="1"
   objecttolerance="10"
   gridtolerance="10"
   guidetolerance="10"
   inkscape:pageopacity="0"
   inkscape:pageshadow="2"
   inkscape:window-width="1024"
   inkscape:window-height="696"
   id="namedview51"
   showgrid="false"
   inkscape:zoom="0.69044441"
   inkscape:cx="256"
   inkscape:cy="256"
   inkscape:window-x="0"
   inkscape:window-y="0"
   inkscape:window-maximized="1"
   inkscape:current-layer="g161"
   inkscape:document-rotation="0" />







<g
   id="g20">
</g>
<g
   id="g22">
</g>
<g
   id="g24">
</g>
<g
   id="g26">
</g>
<g
   id="g28">
</g>
<g
   id="g30">
</g>
<g
   id="g32">
</g>
<g
   id="g34">
</g>
<g
   id="g36">
</g>
<g
   id="g38">
</g>
<g
   id="g40">
</g>
<g
   id="g42">
</g>
<g
   id="g44">
</g>
<g
   id="g46">
</g>
<g
   id="g48">
</g>
<g
   id="g161"
   transform="matrix(0.88446317,0.80183497,-0.75898785,0.93439374,228.45465,-185.2691)"><path
     style="fill:#f2f2f3"
     d="M 92.953257,175.18346 79.82644,175.00724 C 36.327359,174.42332 0.59117343,209.21278 0.00724887,252.71186 -0.57667569,296.21094 34.212785,331.94713 77.711866,332.53105 l 13.126817,0.17621 14.185107,-78.58568 z"
     id="path2" /><path
     style="fill:#dedde0"
     d="m 91.89597,253.94536 c 0,0 -57.320836,-0.76947 -91.88872113,-1.2335 -0.58392456,43.49908 34.20553613,79.23527 77.70461713,79.81919 l 13.126817,0.17621 z"
     id="path4" /><polygon
     style="fill:#bdbcc1"
     points="334.769,78.769 256,78.769 177.231,78.769 177.231,380.718 256,512 334.769,380.718 "
     id="polygon6"
     transform="rotate(-89.230917,256.06712,256.08204)" /><polygon
     style="fill:#acabb1"
     points="256,78.769 177.231,78.769 177.231,380.718 256,512 "
     id="polygon8"
     transform="rotate(-89.230917,256.06712,256.08204)" /><rect
     x="-331.45801"
     y="331.60428"
     style="fill:#818085"
     width="157.53799"
     height="52.513"
     id="rect12"
     transform="rotate(-89.230917)" /><g
     id="g18"
     transform="rotate(-89.230917,256.06712,256.08204)">
	<rect
   x="177.231"
   y="328.20499"
   style="fill:#565659"
   width="78.768997"
   height="52.513"
   id="rect14" />
	<path
   style="fill:#565659"
   d="m 224.492,459.487 v 19.692 C 224.492,497.306 238.6,512 256,512 c 17.4,0 31.508,-14.694 31.508,-32.82 v -19.692 h -63.016 z"
   id="path16" />
</g><text
     xml:space="preserve"
     style="font-size:89.4994px;line-height:1.25;font-family:sans-serif;letter-spacing:0px;stroke-width:1.25641"
     x="85.571747"
     y="293.14142"
     id="text139"
     transform="matrix(1.006512,-0.03767105,-0.03767104,0.99494009,0,0)"><tspan
       sodipodi:role="line"
       id="tspan137"
       x="85.571747"
       y="293.14142"
       style="font-style:normal;font-variant:normal;font-weight:bold;font-stretch:normal;font-size:89.4994px;font-family:sans-serif;-inkscape-font-specification:'sans-serif Bold';stroke-width:1.25641">Fatih</tspan></text></g></svg>
